<svg xmlns="http://www.w3.org/2000/svg" fill="none" viewBox="0 0 281 81" height="81" width="281">
<path fill="black" d="M59.7222 0L64 2L55.4444 10L53 8.66667L59.7222 0Z"></path>
<path fill="black" d="M266.532 41.3672L279.095 14.4141H280.736L265.079 48H263.439L247.782 14.4141H253.947L266.532 41.3672Z"></path>
<path fill="black" d="M234.099 48V14.4141H239.7V48H234.099Z"></path>
<path fill="black" d="M207.079 48V33.7266L194.165 14.4141H200.892L212.329 31.5L223.837 14.4141H225.571L212.681 33.7266V48H207.079Z"></path>
<path fill="black" d="M160.325 48V14.4141H165.927V33.3047L184.841 14.4141H186.95L173.661 27.6797L188.45 48H181.512L169.653 31.6875L165.927 35.4141V48H160.325Z"></path>
<path fill="black" d="M117.489 21.0469L111.02 34.9453H123.958L117.489 21.0469ZM110.317 36.4219L104.926 48H103.286L118.942 14.4141H120.583L136.239 48H130.051L124.661 36.4219H110.317Z"></path>
<path fill="black" d="M86.5784 48V33.7266L73.6643 14.4141H80.3909L91.8284 31.5L103.336 14.4141H105.071L92.1799 33.7266V48H86.5784Z"></path>
<path fill="black" d="M54.3323 13.6406C56.2698 13.6406 58.1135 13.9375 59.8635 14.5312C61.6292 15.125 63.2385 15.9609 64.6916 17.0391C66.1604 18.1016 67.4338 19.3672 68.512 20.8359C69.5901 22.2891 70.426 23.8984 71.0198 25.6641C71.6135 27.4141 71.9104 29.2578 71.9104 31.1953C71.9104 33.1328 71.6135 34.9844 71.0198 36.75C70.426 38.5 69.5901 40.1094 68.512 41.5781C67.4338 43.0312 66.1604 44.2969 64.6916 45.375C63.2385 46.4531 61.6292 47.2891 59.8635 47.8828C58.1135 48.4609 56.2698 48.75 54.3323 48.75C52.3948 48.75 50.5432 48.4609 48.7776 47.8828C47.0276 47.2891 45.4182 46.4531 43.9495 45.375C42.4963 44.2969 41.2307 43.0312 40.1526 41.5781C39.0901 40.1094 38.262 38.5 37.6682 36.75C37.0745 34.9844 36.7776 33.1328 36.7776 31.1953C36.7776 29.2578 37.0745 27.4141 37.6682 25.6641C38.262 23.8984 39.0901 22.2891 40.1526 20.8359C41.2307 19.3672 42.4963 18.1016 43.9495 17.0391C45.4182 15.9609 47.0276 15.125 48.7776 14.5312C50.5432 13.9375 52.3948 13.6406 54.3323 13.6406ZM54.3323 15.1172C53.5979 15.1172 52.8635 15.2109 52.1292 15.3984C50.6604 15.8047 49.3479 16.5 48.1917 17.4844C47.051 18.4688 46.0901 19.6016 45.3088 20.8828C44.3713 22.4297 43.676 24.0938 43.2229 25.875C42.7854 27.6406 42.5667 29.4141 42.5667 31.1953C42.5667 32.9766 42.7854 34.7578 43.2229 36.5391C43.676 38.3047 44.3713 39.9609 45.3088 41.5078C46.0901 42.7891 47.051 43.9219 48.1917 44.9062C49.3479 45.8906 50.6604 46.5859 52.1292 46.9922C52.8635 47.1797 53.5979 47.2734 54.3323 47.2734C55.0823 47.2734 55.8167 47.1797 56.5354 46.9922C58.0042 46.5859 59.3088 45.8906 60.4495 44.9062C61.6057 43.9219 62.5745 42.7891 63.3557 41.5078C64.2932 39.9609 64.9807 38.3047 65.4182 36.5391C65.8713 34.7578 66.0979 32.9766 66.0979 31.1953C66.0979 29.4141 65.8713 27.6406 65.4182 25.875C64.9807 24.0938 64.2932 22.4297 63.3557 20.8828C62.5745 19.6016 61.6057 18.4688 60.4495 17.4844C59.3088 16.5 58.0042 15.8047 56.5354 15.3984C55.8167 15.2109 55.0823 15.1172 54.3323 15.1172Z"></path>
<path fill="black" d="M19.625 41.3672L32.1875 14.4141H33.8281L18.1719 48H16.5312L0.875 14.4141H7.03906L19.625 41.3672Z"></path>
<path fill="black" d="M190.327 74.3984C190.327 75.0599 190.248 75.7214 190.092 76.3828C189.936 77.0443 189.691 77.6615 189.358 78.2344C189.087 78.6979 188.751 79.1068 188.35 79.4609C187.949 79.8151 187.483 80.0573 186.952 80.1875C186.754 80.2292 186.553 80.25 186.35 80.25C186.142 80.25 185.939 80.2292 185.741 80.1875C185.215 80.0573 184.748 79.8151 184.342 79.4609C183.941 79.1068 183.605 78.6979 183.334 78.2344C183.001 77.6615 182.756 77.0443 182.6 76.3828C182.444 75.7214 182.366 75.0599 182.366 74.3984C182.366 73.7422 182.444 73.0833 182.6 72.4219C182.756 71.7604 183.001 71.1432 183.334 70.5703C183.605 70.1068 183.941 69.6979 184.342 69.3438C184.748 68.9896 185.215 68.7474 185.741 68.6172C185.939 68.5703 186.142 68.5469 186.35 68.5469C186.553 68.5469 186.754 68.5703 186.952 68.6172C187.483 68.7474 187.949 68.9896 188.35 69.3438C188.751 69.6979 189.087 70.1068 189.358 70.5703C189.691 71.1432 189.936 71.7604 190.092 72.4219C190.248 73.0833 190.327 73.7422 190.327 74.3984ZM188.459 74.3984C188.459 73.7005 188.405 73 188.295 72.2969C188.207 71.7083 188.058 71.1354 187.85 70.5781C187.793 70.4219 187.717 70.2526 187.623 70.0703C187.535 69.888 187.428 69.7135 187.303 69.5469C187.178 69.3802 187.035 69.2448 186.873 69.1406C186.712 69.0312 186.537 68.9766 186.35 68.9766C186.157 68.9766 185.98 69.0312 185.819 69.1406C185.662 69.2448 185.519 69.3802 185.389 69.5469C185.264 69.7135 185.155 69.888 185.061 70.0703C184.972 70.2526 184.899 70.4219 184.842 70.5781C184.634 71.1354 184.485 71.7083 184.397 72.2969C184.287 73 184.233 73.7005 184.233 74.3984C184.233 75.1016 184.287 75.8021 184.397 76.5C184.485 77.0885 184.634 77.6615 184.842 78.2188C184.899 78.375 184.972 78.5443 185.061 78.7266C185.155 78.9089 185.264 79.0833 185.389 79.25C185.519 79.4167 185.662 79.5547 185.819 79.6641C185.98 79.7734 186.157 79.8281 186.35 79.8281C186.537 79.8281 186.712 79.7734 186.873 79.6641C187.035 79.5547 187.178 79.4167 187.303 79.25C187.428 79.0833 187.535 78.9089 187.623 78.7266C187.717 78.5443 187.793 78.375 187.85 78.2188C188.058 77.6615 188.207 77.0885 188.295 76.5C188.405 75.8021 188.459 75.1016 188.459 74.3984Z"></path>
<path fill="black" d="M177.755 70.6797C177.734 70.3099 177.617 69.9714 177.403 69.6641C177.054 69.2057 176.611 68.9766 176.075 68.9766C175.986 68.9766 175.898 68.9818 175.809 68.9922C175.653 69.013 175.502 69.0573 175.356 69.125C175.023 69.2812 174.747 69.5104 174.528 69.8125C174.309 70.1094 174.135 70.4271 174.005 70.7656C173.692 71.6198 173.528 72.5 173.512 73.4062V73.8594L173.598 73.7578C173.718 73.6276 173.869 73.513 174.052 73.4141C174.234 73.3099 174.408 73.2292 174.575 73.1719C174.809 73.0833 175.046 73.0391 175.286 73.0391C176.015 73.0391 176.697 73.25 177.333 73.6719C177.833 74.0208 178.213 74.4557 178.473 74.9766C178.739 75.4922 178.872 76.0495 178.872 76.6484C178.872 77.3672 178.723 77.9974 178.427 78.5391C178.13 79.0807 177.713 79.5026 177.177 79.8047C176.64 80.1016 176.01 80.25 175.286 80.25C174.677 80.25 174.13 80.1224 173.645 79.8672C173.166 79.6068 172.765 79.25 172.442 78.7969C172.124 78.3438 171.898 77.8255 171.762 77.2422C171.606 76.513 171.528 75.7786 171.528 75.0391C171.528 74.5755 171.559 74.1094 171.622 73.6406C171.695 73.0938 171.817 72.5391 171.989 71.9766C172.166 71.4141 172.408 70.888 172.716 70.3984C173.023 69.9036 173.408 69.4922 173.872 69.1641C174.46 68.7682 175.111 68.5651 175.825 68.5547H175.95C176.533 68.5547 177.067 68.7188 177.552 69.0469C177.916 69.3073 178.197 69.638 178.395 70.0391L177.755 70.6797ZM175.286 79.8281C175.484 79.8281 175.674 79.7839 175.856 79.6953C176.143 79.5443 176.372 79.3151 176.544 79.0078C176.716 78.7005 176.841 78.3698 176.919 78.0156C176.997 77.6562 177.041 77.3255 177.052 77.0234C177.062 76.8984 177.067 76.7734 177.067 76.6484C177.067 76.5182 177.062 76.3906 177.052 76.2656C177.041 75.9635 176.997 75.6354 176.919 75.2812C176.841 74.9219 176.716 74.5911 176.544 74.2891C176.372 73.9818 176.143 73.75 175.856 73.5938C175.674 73.5052 175.484 73.4609 175.286 73.4609C175.109 73.4609 174.937 73.5 174.77 73.5781C174.39 73.7812 174.106 74.1016 173.919 74.5391C173.736 74.9714 173.619 75.3906 173.567 75.7969C173.531 76.0781 173.512 76.362 173.512 76.6484C173.512 76.9297 173.531 77.2109 173.567 77.4922C173.619 77.8984 173.736 78.3203 173.919 78.7578C174.106 79.1953 174.39 79.513 174.77 79.7109C174.937 79.7891 175.109 79.8281 175.286 79.8281Z"></path>
<path fill="black" d="M161.652 78.125C161.678 78.4948 161.795 78.8333 162.003 79.1406C162.352 79.599 162.795 79.8281 163.331 79.8281C163.42 79.8281 163.508 79.8229 163.597 79.8125C163.753 79.7865 163.904 79.7422 164.05 79.6797C164.383 79.5234 164.659 79.2969 164.878 79C165.102 78.6979 165.277 78.3776 165.402 78.0391C165.714 77.1849 165.878 76.3021 165.894 75.3906C165.899 75.2865 165.902 75.1823 165.902 75.0781V74.9453L165.816 75.0469C165.691 75.1771 165.537 75.2943 165.355 75.3984C165.178 75.4974 165.003 75.5755 164.831 75.6328C164.597 75.7214 164.36 75.7656 164.12 75.7656C163.391 75.7656 162.709 75.5547 162.073 75.1328C161.579 74.7839 161.198 74.3516 160.933 73.8359C160.667 73.3151 160.534 72.7552 160.534 72.1562C160.534 71.4375 160.683 70.8073 160.98 70.2656C161.277 69.724 161.693 69.3021 162.23 69C162.766 68.6979 163.396 68.5469 164.12 68.5469C164.735 68.5469 165.282 68.6771 165.761 68.9375C166.24 69.1979 166.639 69.5547 166.956 70.0078C167.279 70.4557 167.508 70.974 167.644 71.5625C167.8 72.2917 167.878 73.0208 167.878 73.75C167.878 74.2188 167.847 74.6901 167.784 75.1641C167.717 75.7109 167.594 76.2656 167.417 76.8281C167.24 77.3906 166.998 77.9193 166.691 78.4141C166.383 78.9036 165.998 79.3125 165.534 79.6406C164.946 80.0365 164.297 80.2396 163.589 80.25H163.456C162.873 80.25 162.339 80.0859 161.855 79.7578C161.49 79.4974 161.212 79.1641 161.019 78.7578L161.652 78.125ZM164.12 68.9766C163.922 68.9766 163.735 69.0182 163.558 69.1016C163.266 69.2578 163.034 69.4896 162.863 69.7969C162.696 70.1042 162.573 70.4375 162.495 70.7969C162.417 71.151 162.37 71.4792 162.355 71.7812C162.344 71.9062 162.339 72.0312 162.339 72.1562C162.339 72.2812 162.344 72.4089 162.355 72.5391C162.37 72.8411 162.417 73.1693 162.495 73.5234C162.573 73.8776 162.696 74.2083 162.863 74.5156C163.034 74.8229 163.266 75.0547 163.558 75.2109C163.735 75.2995 163.922 75.3438 164.12 75.3438C164.303 75.3438 164.477 75.3047 164.644 75.2266C165.019 75.0234 165.297 74.7057 165.48 74.2734C165.667 73.8359 165.787 73.4141 165.839 73.0078C165.881 72.7266 165.902 72.4427 165.902 72.1562C165.902 71.875 165.881 71.5911 165.839 71.3047C165.787 70.9036 165.667 70.4844 165.48 70.0469C165.297 69.6094 165.019 69.2891 164.644 69.0859C164.477 69.013 164.303 68.9766 164.12 68.9766Z"></path>
<path fill="black" d="M154.705 80.25V70.5625L153.869 71.4062L153.572 71.1016L154.697 69.9844L156.095 68.5469H156.58V80.25H154.705Z"></path>
<path fill="black" d="M136.85 68.8047H144.319V69.2969H138.717V73.6484H142.444V74.1484H138.717V79.5H144.319V80H136.85V68.8047Z"></path>
<path fill="black" d="M132.528 70.5312C132.096 70.0677 131.601 69.7057 131.044 69.4453C130.486 69.1797 129.893 69.0469 129.262 69.0469C128.669 69.0469 128.096 69.1693 127.544 69.4141C127.091 69.6172 126.682 69.8854 126.317 70.2188C125.953 70.5469 125.64 70.9219 125.38 71.3438C125.098 71.8073 124.887 72.2995 124.747 72.8203C124.606 73.3359 124.536 73.862 124.536 74.3984C124.536 74.9349 124.606 75.4635 124.747 75.9844C124.887 76.5 125.098 76.9896 125.38 77.4531C125.64 77.875 125.953 78.2526 126.317 78.5859C126.682 78.9141 127.091 79.1797 127.544 79.3828C128.096 79.6276 128.669 79.75 129.262 79.75C129.893 79.75 130.486 79.6198 131.044 79.3594C131.601 79.0938 132.096 78.7292 132.528 78.2656L132.88 78.625C132.302 79.1562 131.65 79.5599 130.927 79.8359C130.208 80.112 129.458 80.25 128.677 80.25C127.692 80.25 126.762 80.0339 125.887 79.6016C125.012 79.1641 124.278 78.5417 123.684 77.7344C122.966 76.7135 122.606 75.6016 122.606 74.3984C122.606 73.1953 122.966 72.0833 123.684 71.0625C124.278 70.2552 125.012 69.6354 125.887 69.2031C126.762 68.7656 127.692 68.5469 128.677 68.5469C129.458 68.5469 130.208 68.6849 130.927 68.9609C131.65 69.237 132.302 69.6406 132.88 70.1719L132.528 70.5312Z"></path>
<path fill="black" d="M109.534 68.8047L118.144 77.4062V68.8047H118.636V80H118.089L109.488 71.3906V80H108.988V68.8047H109.534Z"></path>
<path fill="black" d="M102.837 80V68.8047H104.705V80H102.837Z"></path>
<path fill="black" d="M98.5078 70.3672C98.2318 70.1484 97.9427 69.9583 97.6406 69.7969C97.2396 69.5833 96.8203 69.4245 96.3828 69.3203C95.9557 69.2266 95.5234 69.1797 95.0859 69.1797H94.8984C94.6328 69.1797 94.3672 69.2109 94.1016 69.2734C93.8411 69.3359 93.5938 69.4349 93.3594 69.5703C93.1771 69.6745 93.013 69.8047 92.8672 69.9609C92.7266 70.1172 92.625 70.2995 92.5625 70.5078C92.5312 70.638 92.5156 70.7656 92.5156 70.8906C92.5156 70.9531 92.5234 71.0469 92.5391 71.1719C92.5599 71.2969 92.6172 71.4453 92.7109 71.6172C92.8464 71.8568 93.0182 72.0755 93.2266 72.2734C93.4349 72.4714 93.6536 72.6432 93.8828 72.7891C94.3203 73.0651 94.7682 73.3229 95.2266 73.5625C95.2891 73.599 95.349 73.6328 95.4062 73.6641C95.7396 73.8411 96.0677 74.0234 96.3906 74.2109C96.7135 74.3932 97.026 74.5938 97.3281 74.8125C97.5729 74.9896 97.8021 75.1901 98.0156 75.4141C98.2292 75.6328 98.4089 75.875 98.5547 76.1406C98.763 76.5104 98.8672 76.9036 98.8672 77.3203C98.8672 77.3724 98.8646 77.4271 98.8594 77.4844C98.8333 77.8281 98.7396 78.1536 98.5781 78.4609C98.4271 78.7474 98.2318 79 97.9922 79.2188C97.7526 79.4323 97.487 79.6094 97.1953 79.75C96.8568 79.9219 96.4974 80.0469 96.1172 80.125C95.7422 80.2031 95.3646 80.2448 94.9844 80.25H94.8047C94.4297 80.25 94.0573 80.224 93.6875 80.1719C93.2708 80.1146 92.8646 80.0156 92.4688 79.875C91.7812 79.6302 91.1667 79.2656 90.625 78.7812L90.9766 78.4297C91.2474 78.6484 91.5365 78.8385 91.8438 79C92.2396 79.2135 92.6589 79.3724 93.1016 79.4766C93.5495 79.5755 94.0026 79.625 94.4609 79.625H94.5859C94.8516 79.6198 95.1146 79.5859 95.375 79.5234C95.6406 79.4609 95.8906 79.362 96.125 79.2266C96.3073 79.1224 96.4688 78.9922 96.6094 78.8359C96.75 78.6797 96.8542 78.4974 96.9219 78.2891C96.9583 78.1693 96.9766 78.0521 96.9766 77.9375C96.9766 77.8646 96.9661 77.763 96.9453 77.6328C96.9245 77.5026 96.8672 77.3516 96.7734 77.1797C96.638 76.9401 96.4661 76.724 96.2578 76.5312C96.0495 76.3333 95.8281 76.1589 95.5938 76.0078C95.1615 75.7318 94.7161 75.474 94.2578 75.2344C94.1953 75.1979 94.1302 75.1615 94.0625 75.125C93.7344 74.9531 93.4089 74.776 93.0859 74.5938C92.7682 74.4062 92.4583 74.2031 92.1562 73.9844C91.9115 73.8073 91.6823 73.6094 91.4688 73.3906C91.2552 73.1667 91.0755 72.9219 90.9297 72.6562C90.7266 72.2865 90.625 71.8932 90.625 71.4766C90.625 71.4245 90.625 71.3698 90.625 71.3125C90.651 70.9688 90.7422 70.6432 90.8984 70.3359C91.0547 70.0495 91.25 69.7995 91.4844 69.5859C91.724 69.3672 91.9896 69.1875 92.2812 69.0469C92.625 68.875 92.9844 68.75 93.3594 68.6719C93.7344 68.5938 94.1146 68.5521 94.5 68.5469H94.6875C95.0573 68.5469 95.4245 68.5729 95.7891 68.625C96.2057 68.6823 96.6146 68.7812 97.0156 68.9219C97.6979 69.1667 98.3125 69.5312 98.8594 70.0156L98.5078 70.3672Z"></path>
</svg>
